<svg width="150" height="137" viewBox="0 0 150 137" fill="none" xmlns="http://www.w3.org/2000/svg">
<path d="M76.1364 131.25C112.537 131.25 142.045 102.377 142.045 66.7613C142.045 31.1453 112.537 2.27271 76.1364 2.27271C39.7358 2.27271 10.2273 31.1453 10.2273 66.7613C10.2273 102.377 39.7358 131.25 76.1364 131.25Z" fill="#F5F5F5"/>
<path d="M75.1194 129.477C87.7127 129.497 100.033 125.81 110.546 118.875C108.171 105.898 99.1307 105.154 99.1307 105.154H49.2728C49.2728 105.154 40.75 105.852 38.0796 117.796C48.9228 125.423 61.8624 129.504 75.1194 129.477V129.477Z" fill="#598176"/>
<path d="M74.4376 94.5228C91.6212 94.5228 105.551 80.5928 105.551 63.4092C105.551 46.2256 91.6212 32.2955 74.4376 32.2955C57.254 32.2955 43.324 46.2256 43.324 63.4092C43.324 80.5928 57.254 94.5228 74.4376 94.5228Z" fill="#333333"/>
<path opacity="0.1" d="M64.3977 89.324H84.3352V105.273C84.3352 107.916 83.2852 110.451 81.4163 112.32C79.5473 114.189 77.0124 115.239 74.3693 115.239V115.239C71.7262 115.239 69.1913 114.189 67.3223 112.32C65.4534 110.451 64.4034 107.916 64.4034 105.273V89.324H64.3977Z" fill="black"/>
<path d="M66.3011 88.5853H82.4318C82.9366 88.5853 83.4208 88.7858 83.7777 89.1428C84.1347 89.4997 84.3352 89.9839 84.3352 90.4887V104.546C84.3352 107.189 83.2852 109.724 81.4163 111.592C79.5473 113.461 77.0124 114.511 74.3693 114.511C73.0601 114.512 71.7635 114.255 70.5538 113.754C69.344 113.254 68.2447 112.52 67.3187 111.594C66.3926 110.669 65.658 109.57 65.1569 108.361C64.6557 107.151 64.3977 105.855 64.3977 104.546V90.483C64.3977 89.9782 64.5982 89.494 64.9552 89.1371C65.3122 88.7801 65.7963 88.5796 66.3011 88.5796V88.5853Z" fill="#FDB797"/>
<path opacity="0.1" d="M64.4377 96.8524C70.8631 99.2539 77.9363 99.2741 84.3752 96.9093V94.4434H64.4377V96.8524Z" fill="black"/>
<path d="M74.4376 98.1875C90.2185 98.1875 103.012 85.3946 103.012 69.6136C103.012 53.8327 90.2185 41.0398 74.4376 41.0398C58.6567 41.0398 45.8638 53.8327 45.8638 69.6136C45.8638 85.3946 58.6567 98.1875 74.4376 98.1875Z" fill="#FDB797"/>
<path opacity="0.1" d="M54.0911 43.6194C54.0911 43.6194 66.1308 68.0512 100.114 53.8467L92.2047 41.4433L78.1877 36.4092L54.0911 43.6194Z" fill="black"/>
<path d="M54.0911 43.2614C54.0911 43.2614 66.1308 67.6932 100.114 53.4887L92.2047 41.0852L78.1877 36.0511L54.0911 43.2614Z" fill="#333333"/>
<path d="M53.9832 41.6023C54.7949 39.0892 56.1978 36.8075 58.0741 34.9489C63.6934 29.3921 72.9093 28.2216 77.6366 21.8807C77.8934 22.3295 78.0533 22.8271 78.106 23.3415C78.1586 23.8559 78.1028 24.3756 77.9422 24.8671C77.7816 25.3586 77.5197 25.8109 77.1735 26.195C76.8272 26.579 76.4043 26.8862 75.932 27.0966C80.4775 27.0682 85.7104 26.6705 88.2672 22.9432C88.9 24.4161 89.1019 26.0383 88.8495 27.6214C88.597 29.2045 87.9006 30.6834 86.8411 31.8864C90.8525 32.0682 95.1366 34.7898 95.3979 38.8012C95.5684 41.4716 93.8979 44.0001 91.6991 45.5341C89.5002 47.0682 86.8468 47.7671 84.2331 48.3466C76.6081 50.0398 49.0059 57.091 53.9832 41.6023Z" fill="#333333"/>
<path d="M45.8522 74.5682C47.3208 74.5682 48.5113 72.3373 48.5113 69.5852C48.5113 66.8332 47.3208 64.6023 45.8522 64.6023C44.3836 64.6023 43.1931 66.8332 43.1931 69.5852C43.1931 72.3373 44.3836 74.5682 45.8522 74.5682Z" fill="#FDB797"/>
<path d="M103.006 74.5682C104.474 74.5682 105.665 72.3373 105.665 69.5852C105.665 66.8332 104.474 64.6023 103.006 64.6023C101.537 64.6023 100.347 66.8332 100.347 69.5852C100.347 72.3373 101.537 74.5682 103.006 74.5682Z" fill="#FDB797"/>
</svg>
