<svg width="328" height="87" viewBox="0 0 328 87" fill="none" xmlns="http://www.w3.org/2000/svg">
<g clip-path="url(#clip0)">
<line x1="17.997" y1="81.5285" x2="294.986" y2="79.7522" stroke="#FF5985" stroke-width="0.942972"/>
<path d="M296.775 80.1C296.625 80.1 296.492 80.0417 296.375 79.925C296.275 79.7917 296.225 79.65 296.225 79.5C296.225 79.3333 296.292 79.1833 296.425 79.05C296.558 78.9 296.708 78.825 296.875 78.825C297.008 78.825 297.142 78.9 297.275 79.05C297.408 79.1833 297.475 79.325 297.475 79.475C297.475 79.8917 297.242 80.1 296.775 80.1ZM300.462 80.1C300.312 80.1 300.178 80.0417 300.062 79.925C299.962 79.7917 299.912 79.65 299.912 79.5C299.912 79.3333 299.978 79.1833 300.112 79.05C300.245 78.9 300.395 78.825 300.562 78.825C300.695 78.825 300.828 78.9 300.962 79.05C301.095 79.1833 301.162 79.325 301.162 79.475C301.162 79.8917 300.928 80.1 300.462 80.1ZM304.148 80.1C303.998 80.1 303.865 80.0417 303.748 79.925C303.648 79.7917 303.598 79.65 303.598 79.5C303.598 79.3333 303.665 79.1833 303.798 79.05C303.931 78.9 304.081 78.825 304.248 78.825C304.381 78.825 304.515 78.9 304.648 79.05C304.781 79.1833 304.848 79.325 304.848 79.475C304.848 79.8917 304.615 80.1 304.148 80.1Z" fill="#FF3369"/>
<path d="M20.19 74.516C19.6167 74.516 19.1867 74.3153 18.9 73.914C18.6133 73.4553 18.47 72.9107 18.47 72.28V64.626V56.972L18.298 43.212C18.126 37.0773 18.04 32.4907 18.04 29.452L18.126 26.958V21.368C18.126 15.176 18.0687 12.08 17.954 12.08H8.236C7.77733 12.08 7.34733 11.9653 6.946 11.736C6.602 11.5067 6.43 11.1913 6.43 10.79C6.43 10.3313 6.516 10.016 6.688 9.844C6.86 9.672 7.31867 9.52866 8.064 9.414C8.86667 9.242 10.0133 9.156 11.504 9.156H20.104L29.564 9.07C30.252 9.07 30.7107 9.18466 30.94 9.414C31.2267 9.64333 31.37 10.016 31.37 10.532C31.37 11.392 30.8253 11.822 29.736 11.822H25.866H22.082L21.308 11.908L21.394 16.896V23.604V58.52V65.658L21.48 72.022V72.194C21.48 72.6527 21.4513 73.054 21.394 73.398C21.3367 73.6847 21.222 73.914 21.05 74.086C20.878 74.3727 20.5913 74.516 20.19 74.516ZM52.8129 75.032C52.1249 74.2867 51.3796 72.3087 50.5769 69.098C49.7742 65.8873 49.0289 62.2753 48.3409 58.262C47.8822 54.994 47.2229 51.7547 46.3629 48.544C45.6749 45.6773 45.0156 44.244 44.3849 44.244H44.1269C42.8656 44.244 42.2349 44.6453 42.2349 45.448C42.2349 49.576 42.4642 55.854 42.9229 64.282C43.1522 69.442 43.4102 72.452 43.6969 73.312L43.0089 74.774H41.8049L41.1169 74.086C40.1996 47.598 39.7409 29.538 39.7409 19.906C39.7409 19.2753 39.7696 18.7593 39.8269 18.358C39.9416 17.9567 40.1422 17.584 40.4289 17.24C40.6582 16.8387 41.0596 16.638 41.6329 16.638C44.5569 16.638 46.9076 17.3547 48.6849 18.788C50.4622 20.2213 51.3509 22.2853 51.3509 24.98V31.258C51.3509 32.3473 50.9782 33.8093 50.2329 35.644C49.5449 37.4787 48.7709 39.17 47.9109 40.718L46.7929 42.868C47.4236 45.792 48.6562 51.0667 50.4909 58.692C52.3829 66.26 53.4149 70.2733 53.5869 70.732C53.6442 70.7893 53.7016 70.9327 53.7589 71.162C53.8736 71.3913 54.0742 71.7353 54.3609 72.194C54.7622 72.9967 54.9629 73.6847 54.9629 74.258C54.9629 75.0607 54.6476 75.462 54.0169 75.462L52.8129 75.032ZM42.6649 42.094C43.7542 42.094 44.7289 41.5493 45.5889 40.46C46.4489 39.3707 47.1369 37.966 47.6529 36.246C48.5702 32.7487 49.0289 29.968 49.0289 27.904C49.0289 26.5853 48.9429 25.496 48.7709 24.636C48.6562 23.776 48.4269 22.8587 48.0829 21.884C47.3949 19.8773 45.7609 18.874 43.1809 18.874C42.8942 18.874 42.6649 19.132 42.4929 19.648C42.3209 20.1067 42.2349 20.594 42.2349 21.11C42.2349 24.9513 42.2922 28.42 42.4069 31.516C42.4642 34.612 42.4929 38.0807 42.4929 41.922L42.6649 42.094ZM81.5403 74.774C80.6803 74.774 80.1356 74.6593 79.9062 74.43C79.6769 74.258 79.5049 73.742 79.3903 72.882C78.8743 68.6967 78.5589 66.088 78.4443 65.056L78.0143 61.616C76.7529 61.3293 75.3196 61.186 73.7143 61.186L70.6183 61.014C69.2423 60.842 68.2389 60.756 67.6083 60.756C67.2643 60.756 67.0636 60.8993 67.0063 61.186C67.0063 61.358 66.9776 61.444 66.9203 61.444L66.7483 63.164C66.6909 64.196 66.3756 66.26 65.8023 69.356C65.5156 70.904 65.1716 72.108 64.7703 72.968C64.3116 73.9427 63.8816 74.43 63.4803 74.43C63.1363 74.43 62.7636 74.2867 62.3623 74C61.9609 73.656 61.7603 73.312 61.7603 72.968L61.8463 72.71L61.9323 72.452C62.9643 68.3813 63.8243 64.3393 64.5123 60.326L65.5443 54.994L66.5763 48.458C66.5763 48.458 66.8916 46.566 67.5223 42.782C67.8089 41.234 68.3249 38.74 69.0703 35.3C69.8729 31.4013 70.3603 28.7353 70.5323 27.302C70.5896 27.13 70.7043 26.0693 70.8763 24.12C71.1056 21.9413 71.3063 20.336 71.4783 19.304C71.6503 17.8133 71.8223 16.9533 71.9943 16.724H72.5963C72.7683 16.7813 72.9689 16.81 73.1983 16.81C73.8863 16.81 74.4023 16.638 74.7463 16.294C75.1476 16.294 75.4916 16.4373 75.7783 16.724C76.1223 16.9533 76.2943 17.24 76.2943 17.584C76.2943 20.336 76.4949 23.4893 76.8963 27.044C77.1256 28.8787 77.2976 30.398 77.4123 31.602C78.0429 38.998 79.6483 52.8727 82.2283 73.226V73.484C82.2283 74.0573 81.9989 74.4873 81.5403 74.774ZM77.5843 59.294C77.0109 51.038 75.9216 38.8547 74.3163 22.744L69.6723 45.706C68.3536 52.2993 67.6943 56.456 67.6943 58.176C67.6943 58.4627 68.7836 58.7207 70.9623 58.95C73.1409 59.1793 75.0616 59.294 76.7243 59.294H77.5843ZM98.2652 74.258C98.2652 69.8433 97.5486 63.336 96.1152 54.736C94.7392 46.136 92.9046 36.7333 90.6112 26.528L89.9232 23.862L88.8052 19.906C88.4612 18.702 88.2892 17.9567 88.2892 17.67C88.2892 17.498 88.4039 17.2973 88.6332 17.068C88.9199 16.7813 89.1779 16.638 89.4072 16.638C90.2099 16.638 90.8406 17.5267 91.2992 19.304C91.5286 20.0493 91.7292 20.9093 91.9012 21.884C92.1306 22.8013 92.3026 23.4607 92.4172 23.862C92.5319 24.722 92.6179 25.238 92.6752 25.41C93.7646 29.8247 94.4239 32.634 94.6532 33.838L95.5132 38.224L96.2872 42.352L97.0612 46.738C97.2332 48.286 97.4626 49.6333 97.7492 50.78L99.0392 59.208C99.0392 59.4373 99.2399 60.8993 99.6412 63.594L100.243 67.808C101.39 64.0813 102.365 58.4053 103.167 50.78C103.97 43.6707 105.117 36.5327 106.607 29.366C107.869 23.174 108.757 18.6733 109.273 15.864L110.391 15.434C110.621 15.4913 110.821 15.606 110.993 15.778C111.223 15.95 111.337 16.122 111.337 16.294C111.337 17.5553 111.079 19.2753 110.563 21.454L110.047 23.69L108.585 30.484C107.725 34.2107 107.123 37.0773 106.779 39.084C106.493 41.0907 106.149 43.986 105.747 47.77L105.575 49.748C105.289 52.844 105.059 54.9367 104.887 56.026C104.773 57.1153 104.457 58.52 103.941 60.24C103.483 61.96 103.11 63.4793 102.823 64.798L102.651 66.776C102.537 68.7827 102.307 70.56 101.963 72.108C101.505 74.0573 100.587 75.032 99.2112 75.032L98.2652 74.258ZM100.157 68.066L100.071 68.238L100.157 68.41V68.066ZM123.846 75.118C122.814 75.118 122.24 74.516 122.126 73.312V72.194C122.183 71.9073 122.212 71.5633 122.212 71.162L121.868 70.818C122.326 69.614 122.556 68.4387 122.556 67.292C122.556 65.9733 122.47 64.0813 122.298 61.616L122.126 55.94C122.126 53.0733 122.212 48.7733 122.384 43.04C122.613 37.9373 122.728 33.6087 122.728 30.054L122.556 24.894C122.441 23.346 122.384 21.626 122.384 19.734C122.384 18.874 122.584 18.272 122.986 17.928C123.387 17.5267 124.018 17.326 124.878 17.326C125.451 17.326 125.91 17.498 126.254 17.842C126.368 17.8993 127.2 18.014 128.748 18.186C130.181 18.358 131.414 18.616 132.446 18.96C133.535 19.304 134.08 19.734 134.08 20.25C134.08 20.8233 133.535 21.3967 132.446 21.97C129.178 20.8807 126.856 20.336 125.48 20.336L125.05 20.852C125.107 21.368 125.136 22.6007 125.136 24.55C125.136 27.0153 125.078 29.2227 124.964 31.172C124.906 33.1787 124.878 35.4147 124.878 37.88C124.878 39.4853 125.279 40.288 126.082 40.288L127.458 40.202C127.916 40.1447 128.404 40.116 128.92 40.116C131.156 40.116 132.274 40.632 132.274 41.664C132.274 42.2947 132.13 42.8393 131.844 43.298C131.557 43.6993 131.127 43.9 130.554 43.9C129.694 43.9 129.034 43.6707 128.576 43.212L125.824 42.782H125.394L124.964 43.212V43.47C125.078 44.4447 125.136 46.7093 125.136 50.264C125.136 52.5 125.107 54.5353 125.05 56.37L124.964 62.476C124.964 64.712 125.05 67.0053 125.222 69.356C125.279 70.6747 125.566 71.5633 126.082 72.022C126.598 72.4233 127.544 72.624 128.92 72.624L130.468 72.538C130.984 72.4807 131.557 72.452 132.188 72.452C133.85 72.452 134.682 72.8247 134.682 73.57C134.682 74.602 133.42 75.118 130.898 75.118H123.846ZM145.763 75.118C144.961 75.118 144.473 74.4587 144.301 73.14C144.416 72.796 144.473 71.85 144.473 70.302C144.473 65.0273 144.559 57.2013 144.731 46.824C144.903 36.504 144.989 29.0507 144.989 24.464L145.161 21.368L145.419 18.788C145.419 18.3867 145.62 18.186 146.021 18.186C146.308 18.186 146.709 18.272 147.225 18.444L147.483 18.53C147.483 19.7913 147.455 20.938 147.397 21.97V25.324V34.698C147.455 37.45 147.483 40.5747 147.483 44.072C147.426 44.3587 147.397 44.9893 147.397 45.964L147.311 47.77C147.254 48.9167 147.225 50.092 147.225 51.296C147.225 52.6147 147.254 53.8187 147.311 54.908L147.397 58.606L147.139 59.294L147.225 59.208C147.225 59.38 147.197 59.4947 147.139 59.552V59.896C147.139 60.3547 147.225 60.756 147.397 61.1L147.139 69.356V69.872C147.139 70.8467 147.168 71.42 147.225 71.592C147.225 71.8787 147.369 72.022 147.655 72.022L152.127 72.194C153.446 72.194 154.335 72.2227 154.793 72.28C155.309 72.28 155.625 72.28 155.739 72.28H155.997C156.284 72.28 156.571 72.452 156.857 72.796C157.144 73.0827 157.287 73.398 157.287 73.742C157.287 74.43 156.829 74.8027 155.911 74.86C154.937 74.8027 152.557 74.774 148.773 74.774L148.945 74.86C148.372 74.86 147.827 74.8887 147.311 74.946C146.853 75.0607 146.337 75.118 145.763 75.118ZM188.843 74.688C188.155 74.516 187.839 74.43 187.897 74.43C186.865 70.1873 185.718 63.852 184.457 55.424L179.727 24.722L178.953 20.938C177.691 16.0073 177.061 12.5387 177.061 10.532C177.061 10.1307 177.175 9.78666 177.405 9.49999C177.691 9.156 177.978 8.984 178.265 8.984C178.437 8.984 178.637 9.04133 178.867 9.156C179.153 9.27066 179.411 9.586 179.641 10.102C179.87 10.5607 179.985 10.9907 179.985 11.392L180.157 12.596L181.361 19.218L182.135 23.776L186.435 53.274L187.553 61.444C188.011 64.196 188.384 66.8047 188.671 69.27L189.273 63.164L190.219 53.274L192.283 34.44C192.799 29.108 193.171 25.6107 193.401 23.948L193.831 19.476L194.433 15.176C194.719 13.456 194.92 11.8507 195.035 10.36C195.149 9.27066 195.694 8.72599 196.669 8.72599L197.185 9.07H197.013L197.873 9.758C197.873 11.4207 197.643 13.8573 197.185 17.068L196.669 20.422L196.411 22.572C195.665 28.8213 195.207 32.72 195.035 34.268C194.175 41.5493 193.257 49.4327 192.283 57.918C191.365 66.4033 190.878 71.3913 190.821 72.882C190.362 74.1433 189.817 74.774 189.187 74.774L188.843 74.688ZM188.757 69.786L188.671 69.528L188.499 69.786H188.757ZM209.844 75.118C209.041 75.118 208.554 74.4587 208.382 73.14C208.496 72.796 208.554 71.85 208.554 70.302C208.554 65.0273 208.64 57.2013 208.812 46.824C208.984 36.504 209.07 29.0507 209.07 24.464L209.242 21.368L209.5 18.788C209.5 18.3867 209.7 18.186 210.102 18.186C210.388 18.186 210.79 18.272 211.306 18.444L211.564 18.53C211.564 19.7913 211.535 20.938 211.478 21.97V25.324V34.698C211.535 37.45 211.564 40.5747 211.564 44.072C211.506 44.3587 211.478 44.9893 211.478 45.964L211.392 47.77C211.334 48.9167 211.306 50.092 211.306 51.296C211.306 52.6147 211.334 53.8187 211.392 54.908L211.478 58.606L211.22 59.294L211.306 59.208C211.306 59.38 211.277 59.4947 211.22 59.552V59.896C211.22 60.3547 211.306 60.756 211.478 61.1L211.22 69.356V69.872C211.22 70.8467 211.248 71.42 211.306 71.592C211.306 71.8787 211.449 72.022 211.736 72.022L216.208 72.194C217.526 72.194 218.415 72.2227 218.874 72.28C219.39 72.28 219.705 72.28 219.82 72.28H220.078C220.364 72.28 220.651 72.452 220.938 72.796C221.224 73.0827 221.368 73.398 221.368 73.742C221.368 74.43 220.909 74.8027 219.992 74.86C219.017 74.8027 216.638 74.774 212.854 74.774L213.026 74.86C212.452 74.86 211.908 74.8887 211.392 74.946C210.933 75.0607 210.417 75.118 209.844 75.118ZM238.656 75.634C231.948 75.634 228.594 65.0847 228.594 43.986V40.976C228.594 24.98 230.658 16.982 234.786 16.982C235.072 16.982 235.474 17.068 235.99 17.24C237.824 17.8707 239.63 18.272 241.408 18.444C242.497 18.6733 243.586 19.7913 244.676 21.798C245.88 23.862 246.768 26.5853 247.342 29.968C247.972 33.3507 248.288 36.8193 248.288 40.374L248.116 40.804C248.116 42.696 248.144 44.3873 248.202 45.878L248.288 51.038C248.288 53.962 248.173 56.5993 247.944 58.95C247.6 62.5047 247.026 65.572 246.224 68.152C245.708 69.7 245.106 70.99 244.418 72.022C243.787 73.054 242.984 73.914 242.01 74.602C241.092 75.29 239.974 75.634 238.656 75.634ZM238.312 73.14C240.548 73.14 242.21 71.5633 243.3 68.41C244.389 65.1993 245.048 61.9313 245.278 58.606C245.507 55.166 245.622 52.414 245.622 50.35C245.622 48.0567 245.45 44.674 245.106 40.202C244.819 35.214 244.676 31.8313 244.676 30.054L244.332 29.366L244.504 28.936C244.504 26.4133 243.787 24.2347 242.354 22.4C240.978 20.5653 239.286 19.648 237.28 19.648C234.642 19.648 233.066 20.9093 232.55 23.432C232.435 24.292 232.32 25.5247 232.206 27.13C232.206 31.3727 232.034 34.268 231.69 35.816C231.69 36.676 231.604 38.0233 231.432 39.858L231.26 43.9C231.26 45.1613 231.288 46.2793 231.346 47.254L231.432 50.694C231.432 53.3887 231.661 56.4847 232.12 59.982C232.464 62.562 232.865 64.7407 233.324 66.518C233.782 68.2953 234.442 69.8147 235.302 71.076C236.162 72.452 237.165 73.14 238.312 73.14ZM269.59 74.602C266.953 74.602 265.003 74.2867 263.742 73.656C262.481 73.0253 261.535 71.8213 260.904 70.044C260.331 68.2093 259.815 65.314 259.356 61.358C258.668 55.5673 258.324 51.0667 258.324 47.856C258.324 45.9067 258.439 43.6707 258.668 41.148L259.184 35.73C259.471 31.43 259.786 28.1907 260.13 26.012C260.531 23.776 261.363 21.8267 262.624 20.164C263.943 18.444 265.949 17.4407 268.644 17.154C268.931 17.0967 269.389 17.068 270.02 17.068C271.797 17.068 272.686 17.4693 272.686 18.272C272.686 18.616 272.485 18.9313 272.084 19.218C271.74 19.4473 271.367 19.562 270.966 19.562L270.106 19.476L269.332 19.39C268.357 19.39 267.469 19.7053 266.666 20.336C265.921 20.9667 265.29 21.884 264.774 23.088C263.57 25.9547 262.796 28.764 262.452 31.516C261.993 35.128 261.707 38.2813 261.592 40.976L261.506 47.598C261.506 50.4073 261.592 52.5 261.764 53.876C262.165 54.5067 262.423 55.4813 262.538 56.8C262.71 58.0613 262.853 59.81 262.968 62.046C263.083 64.0527 263.341 65.7727 263.742 67.206C264.143 68.582 264.86 69.7287 265.892 70.646C267.039 71.6207 268.615 72.108 270.622 72.108C272.285 72.108 273.46 71.1907 274.148 69.356C274.951 67.4067 275.409 65.4 275.524 63.336C275.696 60.756 275.782 58.5773 275.782 56.8V52.07C275.209 51.4967 274.205 51.21 272.772 51.21H272.084C271.797 51.2673 271.482 51.296 271.138 51.296C269.762 51.296 269.074 50.952 269.074 50.264C269.074 49.2893 269.762 48.802 271.138 48.802C272.113 48.802 272.915 48.8307 273.546 48.888L275.438 48.974C276.527 49.146 277.387 49.3467 278.018 49.576C278.706 49.8053 279.05 50.1207 279.05 50.522C279.05 51.2673 278.878 52.328 278.534 53.704C278.247 55.3093 278.104 56.3987 278.104 56.972C278.104 59.38 278.161 61.5587 278.276 63.508C278.333 65.5147 278.362 67.722 278.362 70.13C275.438 73.1113 272.514 74.602 269.59 74.602Z" fill="black"/>
<g opacity="0.9" clip-path="url(#clip1)">
<path d="M322.519 79.3064L324.134 76.4117L317.648 64.3537C317.648 64.3537 318.937 62.7039 320.615 60.117C321.627 58.4616 322.043 56.5102 321.794 54.5861L321.794 54.5954L321.616 54.4702C319.733 54.8916 318.051 55.9413 316.845 57.4464L316.829 57.4664C314.973 59.9271 313.863 61.7031 313.863 61.7031L300.315 59.733L298.147 62.2409L306.346 64.9438L310.178 66.7745C308.4 69.0515 306.984 71.5902 305.983 74.3005L306.059 74.1165L302.623 73.3152L301.386 75.0826L305.397 76.719C305.334 77.1324 305.302 77.4818 305.286 77.831L305.289 77.7822L305.095 78.0594C305.158 78.0362 305.222 78.0077 305.285 77.9828C305.285 78.0501 305.279 78.1192 305.279 78.1881L305.473 77.9109C305.75 77.7974 306.068 77.6475 306.378 77.4808L306.436 77.4465L309.345 80.6557L310.583 78.8883L308.655 75.9343C310.303 74.5494 311.933 72.7757 313.345 70.7596C313.637 70.3418 313.917 69.9194 314.182 69.4917L314.145 69.5508L317.177 72.5264L322.521 79.3061L322.519 79.3064Z" fill="#FF4778"/>
</g>
</g>
<defs>
<clipPath id="clip0">
<rect width="328" height="87" fill="white"/>
</clipPath>
<clipPath id="clip1">
<rect width="30" height="28.8" fill="white" transform="translate(309.519 46) rotate(35)"/>
</clipPath>
</defs>
</svg>
