<svg width="150" height="134" viewBox="0 0 150 134" fill="none" xmlns="http://www.w3.org/2000/svg">
<g opacity="0.5">
<path opacity="0.5" d="M74.2702 125.572C106.487 125.572 132.604 99.4551 132.604 67.2382C132.604 35.0213 106.487 8.9043 74.2702 8.9043C42.0533 8.9043 15.9363 35.0213 15.9363 67.2382C15.9363 99.4551 42.0533 125.572 74.2702 125.572Z" fill="url(#paint0_linear)"/>
</g>
<path d="M74.2701 124.022C105.806 124.022 131.371 98.4571 131.371 66.9212C131.371 35.3854 105.806 9.82056 74.2701 9.82056C42.7343 9.82056 17.1694 35.3854 17.1694 66.9212C17.1694 98.4571 42.7343 124.022 74.2701 124.022Z" fill="#F5F5F5"/>
<path d="M74.4311 124.193C85.5893 124.211 96.5062 120.945 105.82 114.8C103.716 103.304 95.7079 102.644 95.7079 102.644H51.5536C51.5536 102.644 44.0032 103.263 41.6375 113.844C51.2379 120.597 62.6935 124.212 74.4311 124.193Z" fill="#598176"/>
<path opacity="0.1" d="M64.9331 88.6208H82.5959V102.75C82.5959 105.092 81.6657 107.337 80.0099 108.993C78.3542 110.649 76.1086 111.579 73.767 111.579C72.6071 111.58 71.4585 111.352 70.3868 110.908C69.315 110.465 68.3412 109.815 67.5208 108.995C66.7004 108.175 66.0497 107.201 65.6056 106.13C65.1616 105.058 64.9331 103.91 64.9331 102.75V88.6208Z" fill="black"/>
<path d="M66.6193 87.9666H80.9096C81.3568 87.9666 81.7857 88.1442 82.102 88.4604C82.4182 88.7767 82.5959 89.2056 82.5959 89.6528V102.096C82.5959 104.437 81.6657 106.683 80.0099 108.339C78.3542 109.994 76.1086 110.925 73.767 110.925C72.6071 110.925 71.4585 110.697 70.3868 110.254C69.315 109.811 68.3412 109.16 67.5208 108.34C66.7004 107.521 66.0497 106.547 65.6056 105.476C65.1616 104.404 64.9331 103.256 64.9331 102.096V89.6528C64.9331 89.2056 65.1108 88.7767 65.427 88.4604C65.7432 88.1442 66.1721 87.9666 66.6193 87.9666Z" fill="#FDB797"/>
<path opacity="0.1" d="M64.968 95.2905C70.6603 97.418 76.9265 97.4359 82.6308 95.3408V93.1714H64.968V95.2905Z" fill="black"/>
<path d="M73.8272 96.4732C87.8076 96.4732 99.1409 85.1399 99.1409 71.1595C99.1409 57.1791 87.8076 45.8457 73.8272 45.8457C59.8468 45.8457 48.5134 57.1791 48.5134 71.1595C48.5134 85.1399 59.8468 96.4732 73.8272 96.4732Z" fill="#FDB797"/>
<path d="M49.0371 74.4917C50.3381 74.4917 51.3928 72.5153 51.3928 70.0773C51.3928 67.6392 50.3381 65.6628 49.0371 65.6628C47.7361 65.6628 46.6814 67.6392 46.6814 70.0773C46.6814 72.5153 47.7361 74.4917 49.0371 74.4917Z" fill="#FDB797"/>
<path d="M98.4866 74.4917C99.7876 74.4917 100.842 72.5153 100.842 70.0773C100.842 67.6392 99.7876 65.6628 98.4866 65.6628C97.1855 65.6628 96.1309 67.6392 96.1309 70.0773C96.1309 72.5153 97.1855 74.4917 98.4866 74.4917Z" fill="#FDB797"/>
<path d="M67.0421 71.2803H60.5941C59.3848 71.2803 58.4045 72.2606 58.4045 73.4699V74.5068C58.4045 75.7161 59.3848 76.6964 60.5941 76.6964H67.0421C68.2514 76.6964 69.2317 75.7161 69.2317 74.5068V73.4699C69.2317 72.2606 68.2514 71.2803 67.0421 71.2803Z" stroke="#333333" stroke-width="2" stroke-miterlimit="10"/>
<path d="M80.6175 76.6912H87.0655C88.2748 76.6912 89.2551 75.7109 89.2551 74.5016V73.4647C89.2551 72.2554 88.2748 71.2751 87.0655 71.2751H80.6175C79.4083 71.2751 78.4279 72.2554 78.4279 73.4647V74.5016C78.4279 75.7109 79.4083 76.6912 80.6175 76.6912Z" stroke="#333333" stroke-width="2" stroke-miterlimit="10"/>
<path d="M68.8188 71.8038C68.8188 71.8038 72.2517 69.9414 78.6343 71.8038" stroke="#333333" stroke-width="2" stroke-miterlimit="10"/>
<path d="M91.3289 52.812L97.5403 67.2432C97.5403 67.2432 105.136 57.6694 91.3289 52.812Z" fill="#858585"/>
<path d="M89.2551 73.9884L98.5269 65.7083" stroke="#333333" stroke-width="2" stroke-linecap="round" stroke-linejoin="round"/>
<path d="M56.3355 52.812L50.1241 67.2432C50.1241 67.2432 42.5284 57.6694 56.3355 52.812Z" fill="#858585"/>
<path d="M58.4045 73.9884L49.0068 65.7083" stroke="#333333" stroke-width="2" stroke-linecap="round" stroke-linejoin="round"/>
<defs>
<linearGradient id="paint0_linear" x1="77664.2" y1="57814.3" x2="77664.2" y2="30774.2" gradientUnits="userSpaceOnUse">
<stop stop-color="#808080" stop-opacity="0.25"/>
<stop offset="0.54" stop-color="#808080" stop-opacity="0.12"/>
<stop offset="1" stop-color="#808080" stop-opacity="0.1"/>
</linearGradient>
</defs>
</svg>
