<svg width="150" height="134" viewBox="0 0 150 134" fill="none" xmlns="http://www.w3.org/2000/svg">
<g opacity="0.5">
<path opacity="0.5" d="M74.2864 130.213C110.244 130.213 139.393 101.064 139.393 65.1067C139.393 29.1493 110.244 0 74.2864 0C38.3289 0 9.17969 29.1493 9.17969 65.1067C9.17969 101.064 38.3289 130.213 74.2864 130.213Z" fill="url(#paint0_linear)"/>
</g>
<path d="M74.4103 128.416C109.608 128.416 138.141 99.8827 138.141 64.6854C138.141 29.4881 109.608 0.955078 74.4103 0.955078C39.213 0.955078 10.6799 29.4881 10.6799 64.6854C10.6799 99.8827 39.213 128.416 74.4103 128.416Z" fill="#F5F5F5"/>
<path d="M74.4661 128.674C86.9199 128.695 99.1042 125.049 109.5 118.191C107.146 105.354 98.2133 104.618 98.2133 104.618H48.938C48.938 104.618 40.5111 105.309 37.8706 117.118C48.5835 124.656 61.3671 128.693 74.4661 128.674Z" fill="#598176"/>
<path d="M73.7977 94.1067C90.7882 94.1067 104.562 80.3332 104.562 63.3427C104.562 46.3521 90.7882 32.5786 73.7977 32.5786C56.8072 32.5786 43.0337 46.3521 43.0337 63.3427C43.0337 80.3332 56.8072 94.1067 73.7977 94.1067Z" fill="#72351C"/>
<path opacity="0.1" d="M63.865 88.9663H83.5785V104.736C83.5807 106.031 83.3274 107.315 82.8332 108.512C82.339 109.71 81.6135 110.798 80.6983 111.715C79.783 112.631 78.696 113.359 77.4994 113.855C76.3027 114.351 75.02 114.607 73.7245 114.607C71.1111 114.607 68.6047 113.569 66.7568 111.721C64.9088 109.873 63.8706 107.366 63.8706 104.753V88.9663H63.865Z" fill="black"/>
<path d="M65.7304 88.2358H81.6799C82.179 88.2358 82.6577 88.4341 83.0106 88.7871C83.3636 89.14 83.5619 89.6187 83.5619 90.1179V104.006C83.5619 106.619 82.5237 109.125 80.6757 110.973C78.8278 112.821 76.3214 113.859 73.708 113.859C71.0945 113.859 68.5882 112.821 66.7402 110.973C64.8922 109.125 63.854 106.619 63.854 104.006V90.1179C63.854 89.6187 64.0523 89.14 64.4052 88.7871C64.7582 88.4341 65.2369 88.2358 65.736 88.2358H65.7304Z" fill="#FDA57D"/>
<path opacity="0.1" d="M63.8877 96.4101C70.2409 98.7846 77.2346 98.8046 83.6012 96.4663V94.0449H63.8877V96.4101Z" fill="black"/>
<path d="M73.7977 97.7302C89.4013 97.7302 102.051 85.081 102.051 69.4774C102.051 53.8738 89.4013 41.2246 73.7977 41.2246C58.1941 41.2246 45.5449 53.8738 45.5449 69.4774C45.5449 85.081 58.1941 97.7302 73.7977 97.7302Z" fill="#FDA57D"/>
<path opacity="0.1" d="M53.6741 43.7811C53.6741 43.7811 65.5786 67.9384 99.1797 53.8934L91.3595 41.6294L77.4999 36.6519L53.6741 43.7811Z" fill="black"/>
<path d="M53.6741 43.4271C53.6741 43.4271 65.5786 67.5844 99.1797 53.5394L91.3595 41.2754L77.4999 36.2979L53.6741 43.4271Z" fill="#72351C"/>
<path d="M53.5674 41.792C54.37 39.3071 55.7572 37.051 57.6124 35.2133C63.1685 29.719 72.2809 28.5617 76.9551 22.292C77.209 22.7357 77.3671 23.2278 77.4192 23.7364C77.4712 24.245 77.4161 24.7588 77.2573 25.2448C77.0984 25.7308 76.8395 26.178 76.4972 26.5577C76.1548 26.9375 75.7367 27.2412 75.2697 27.4493C79.764 27.4212 84.9382 27.0279 87.4663 23.3426C88.092 24.7989 88.2916 26.4029 88.042 27.9681C87.7924 29.5334 87.1038 30.9958 86.0562 32.1853C90.0225 32.365 94.2584 35.056 94.5169 39.0223C94.6854 41.6628 93.0337 44.1628 90.8596 45.6796C88.6854 47.1965 86.0674 47.8763 83.4831 48.4381C75.9438 50.1235 48.6461 57.0954 53.5674 41.792Z" fill="#72351C"/>
<path d="M102.051 69.7246H101.303L86.7303 82.7078C72.6853 76.1347 62.382 82.7078 62.382 82.7078L47.1011 70.2696L45.5618 70.4606C45.7702 77.876 48.8868 84.912 54.2386 90.0492C59.5905 95.1863 66.748 98.0125 74.1658 97.9173C81.5836 97.8222 88.6663 94.8133 93.8846 89.5406C99.1029 84.2678 102.038 77.1542 102.056 69.7358L102.051 69.7246ZM73.7584 87.674C68.264 87.674 63.8089 86.5505 63.8089 85.1853C63.8089 83.8201 68.264 82.6965 73.7584 82.6965C79.2528 82.6965 83.7078 83.8201 83.7078 85.1853C83.7078 86.5505 79.2528 87.674 73.7528 87.674H73.7584Z" fill="#72351C"/>
<path d="M45.5338 74.3764C46.9858 74.3764 48.163 72.1705 48.163 69.4494C48.163 66.7283 46.9858 64.5225 45.5338 64.5225C44.0817 64.5225 42.9045 66.7283 42.9045 69.4494C42.9045 72.1705 44.0817 74.3764 45.5338 74.3764Z" fill="#FDA57D"/>
<path d="M102.045 74.3764C103.497 74.3764 104.674 72.1705 104.674 69.4494C104.674 66.7283 103.497 64.5225 102.045 64.5225C100.593 64.5225 99.4158 66.7283 99.4158 69.4494C99.4158 72.1705 100.593 74.3764 102.045 74.3764Z" fill="#FDA57D"/>
<defs>
<linearGradient id="paint0_linear" x1="86110.2" y1="30179.6" x2="86110.2" y2="0" gradientUnits="userSpaceOnUse">
<stop stop-color="#808080" stop-opacity="0.25"/>
<stop offset="0.54" stop-color="#808080" stop-opacity="0.12"/>
<stop offset="1" stop-color="#808080" stop-opacity="0.1"/>
</linearGradient>
</defs>
</svg>
