<svg width="150" height="150" viewBox="0 0 150 150" fill="none" xmlns="http://www.w3.org/2000/svg">
<g opacity="0.5">
<path opacity="0.5" d="M77.2666 141.5C112.825 141.5 141.65 111.681 141.65 74.8964C141.65 38.1124 112.825 8.29297 77.2666 8.29297C41.7087 8.29297 12.8833 38.1124 12.8833 74.8964C12.8833 111.681 41.7087 141.5 77.2666 141.5Z" fill="url(#paint0_linear)"/>
</g>
<path d="M77.3889 139.667C112.195 139.667 140.411 110.478 140.411 74.4713C140.411 38.4648 112.195 9.27588 77.3889 9.27588C42.5827 9.27588 14.3667 38.4648 14.3667 74.4713C14.3667 110.478 42.5827 139.667 77.3889 139.667Z" fill="#F5F5F5"/>
<path d="M77.4444 139.925C89.7523 139.942 101.793 136.212 112.067 129.201C109.744 116.075 100.906 115.322 100.906 115.322H52.1944C52.1944 115.322 43.8611 116.029 41.25 128.109C51.846 135.819 64.4896 139.947 77.4444 139.925Z" fill="#598176"/>
<path d="M76.7777 104.569C93.5794 104.569 107.2 90.4788 107.2 73.0977C107.2 55.7166 93.5794 41.6265 76.7777 41.6265C59.976 41.6265 46.3555 55.7166 46.3555 73.0977C46.3555 90.4788 59.976 104.569 76.7777 104.569Z" fill="#F55F44"/>
<path opacity="0.1" d="M66.9609 99.3103H86.4554V115.442C86.4554 118.116 85.4287 120.68 83.6013 122.57C81.7739 124.461 79.2953 125.523 76.7109 125.523C74.1265 125.523 71.648 124.461 69.8206 122.57C67.9931 120.68 66.9665 118.116 66.9665 115.442V99.3103H66.9609Z" fill="black"/>
<path d="M68.8224 98.5632H84.5946C84.839 98.5632 85.081 98.613 85.3068 98.7098C85.5326 98.8065 85.7377 98.9484 85.9106 99.1271C86.0834 99.3059 86.2205 99.5182 86.314 99.7518C86.4075 99.9853 86.4557 100.236 86.4557 100.489V114.695C86.4557 116.019 86.2036 117.33 85.7139 118.553C85.2242 119.776 84.5065 120.887 83.6016 121.823C82.6968 122.759 81.6225 123.502 80.4403 124.009C79.258 124.515 77.9909 124.776 76.7112 124.776C75.4316 124.776 74.1645 124.515 72.9822 124.009C71.8 123.502 70.7257 122.759 69.8209 121.823C68.916 120.887 68.1982 119.776 67.7085 118.553C67.2188 117.33 66.9668 116.019 66.9668 114.695V100.489C66.9668 99.9779 67.1629 99.4882 67.5119 99.1271C67.8609 98.7661 68.3343 98.5632 68.8279 98.5632H68.8224Z" fill="#FDA57D"/>
<path opacity="0.1" d="M67 106.925C73.2826 109.355 80.1985 109.375 86.4944 106.983V104.506H67V106.925Z" fill="black"/>
<path d="M76.7778 108.276C92.208 108.276 104.717 95.3358 104.717 79.3735C104.717 63.4112 92.208 50.4712 76.7778 50.4712C61.3475 50.4712 48.8389 63.4112 48.8389 79.3735C48.8389 95.3358 61.3475 108.276 76.7778 108.276Z" fill="#FDA57D"/>
<path d="M76.7391 52.7185C82.9492 52.7185 87.9835 47.5106 87.9835 41.0863C87.9835 34.662 82.9492 29.4541 76.7391 29.4541C70.5289 29.4541 65.4946 34.662 65.4946 41.0863C65.4946 47.5106 70.5289 52.7185 76.7391 52.7185Z" fill="#F55F44"/>
<path d="M76.7388 37.2703C80.8165 37.2703 84.1221 33.8506 84.1221 29.6323C84.1221 25.414 80.8165 21.9944 76.7388 21.9944C72.6611 21.9944 69.3555 25.414 69.3555 29.6323C69.3555 33.8506 72.6611 37.2703 76.7388 37.2703Z" fill="#F55F44"/>
<path d="M71.8611 47.4656C69.2229 46.2414 67.1421 44.0131 66.0506 41.2433C64.9591 38.4735 64.941 35.3753 65.9999 32.592C65.9222 32.753 65.8444 32.9196 65.7722 33.0863C65.1677 34.4803 64.8346 35.9838 64.7918 37.5109C64.7491 39.0381 64.9975 40.559 65.5229 41.9868C66.0483 43.4146 66.8405 44.7214 67.8541 45.8326C68.8677 46.9437 70.083 47.8375 71.4305 48.4627C72.778 49.088 74.2314 49.4326 75.7076 49.4769C77.1839 49.5211 78.6541 49.2641 80.0343 48.7206C81.4145 48.177 82.6778 47.3576 83.7519 46.309C84.826 45.2604 85.6899 44.0033 86.2944 42.6093C86.3666 42.4426 86.4333 42.276 86.4999 42.1035C85.1947 44.7733 82.9452 46.8201 80.219 47.8187C77.4928 48.8173 74.4995 48.6908 71.8611 47.4656Z" fill="#F55F44"/>
<path opacity="0.1" d="M56.8833 53.0861C56.8833 53.0861 68.6555 77.7987 101.883 63.4309L94.15 50.8849L80.4444 45.793L56.8833 53.0861Z" fill="black"/>
<path d="M56.8833 52.7184C56.8833 52.7184 68.6555 77.431 101.883 63.0632L94.15 50.5172L80.4444 45.4253L56.8833 52.7184Z" fill="#F55F44"/>
<path d="M65.9556 43.7184C73.1999 43.129 80.4779 43.129 87.7222 43.7184C87.7222 43.7184 71.6445 45.2644 65.9556 43.7184Z" fill="#333333"/>
<path d="M78.4277 21.5288C77.8691 21.5076 77.3099 21.552 76.761 21.661H77.1887C79.0071 21.7212 80.7398 22.4743 82.0542 23.7756C83.3685 25.0769 84.1716 26.8346 84.3094 28.7112C84.4472 30.5878 83.9099 32.4509 82.8007 33.9427C81.6915 35.4344 80.0886 36.4496 78.2999 36.7932C80.2566 36.8115 82.1402 36.0249 83.5363 34.6066C84.9324 33.1882 85.7266 31.2542 85.7443 29.23C85.762 27.2058 85.0017 25.2573 83.6306 23.813C82.2595 22.3688 80.3899 21.5471 78.4332 21.5288H78.4277Z" fill="#F55F44"/>
<path d="M48.8334 84.3851C50.2693 84.3851 51.4334 82.1286 51.4334 79.3449C51.4334 76.5613 50.2693 74.3047 48.8334 74.3047C47.3975 74.3047 46.2334 76.5613 46.2334 79.3449C46.2334 82.1286 47.3975 84.3851 48.8334 84.3851Z" fill="#FDA57D"/>
<path d="M104.717 84.3851C106.153 84.3851 107.317 82.1286 107.317 79.3449C107.317 76.5613 106.153 74.3047 104.717 74.3047C103.281 74.3047 102.117 76.5613 102.117 79.3449C102.117 82.1286 103.281 84.3851 104.717 84.3851Z" fill="#FDA57D"/>
<path d="M55.1223 53.4483L60.5723 50.5403L61.8001 55.2012L58.4612 57.5518L55.1223 53.4483Z" fill="#F55F44"/>
<defs>
<linearGradient id="paint0_linear" x1="49598.3" y1="65307.7" x2="49598.3" y2="34434.3" gradientUnits="userSpaceOnUse">
<stop stop-color="#808080" stop-opacity="0.25"/>
<stop offset="0.54" stop-color="#808080" stop-opacity="0.12"/>
<stop offset="1" stop-color="#808080" stop-opacity="0.1"/>
</linearGradient>
</defs>
</svg>
